<svg width="480" height="216" viewBox="0 0 480 216" fill="none" xmlns="http://www.w3.org/2000/svg">
<g clip-path="url(#clip0_27_1034)">
<path d="M0 8C0 3.58172 3.58172 0 8 0H472C476.418 0 480 3.58172 480 8V208C480 212.418 476.418 216 472 216H7.99999C3.58171 216 0 212.418 0 208V8Z" fill="#EAE9FC"/>
<circle cx="240.5" cy="79.5" r="154.5" fill="#D4D2F9"/>
<circle cx="240.5" cy="79.5" r="75.5" fill="#7F79EC"/>
<path d="M297.805 136.758C295.597 134.203 295.558 131.43 295.558 131.43L298.726 130.102C298.726 130.102 298.765 132.874 300.973 135.429L297.805 136.758Z" fill="url(#paint0_linear_27_1034)"/>
<path d="M233.984 164.561C229.946 166.963 226.131 166.349 226.131 166.349L225.069 161.699C225.069 161.699 228.883 162.312 232.922 159.91L233.984 164.561Z" fill="url(#paint1_linear_27_1034)"/>
<path d="M215.546 147.229C210.24 146.124 207.482 142.636 207.482 142.636L208.845 139.984C208.845 139.984 211.603 143.472 216.909 144.578L215.546 147.229Z" fill="url(#paint2_linear_27_1034)"/>
<path d="M193.21 145.632C190.624 148.896 187.277 149.586 187.277 149.586L184.928 146.073C184.928 146.073 188.275 145.383 190.861 142.118L193.21 145.632Z" fill="url(#paint3_linear_27_1034)"/>
<path d="M139.379 109.812C137.088 112.316 128.333 114.942 128.333 114.942L126.624 111.946C126.624 111.946 135.379 109.326 137.67 106.816L139.379 109.812Z" fill="url(#paint4_linear_27_1034)"/>
<path d="M115.488 66.2619C110.47 67.0286 106.912 64.8693 106.912 64.8693L107.738 59.7905C107.738 59.7905 111.296 61.9498 116.314 61.1831L115.488 66.2619Z" fill="url(#paint5_linear_27_1034)"/>
<path d="M99.232 20.7508C94.848 21.5621 91.6544 19.7733 91.6544 19.7733L92.2368 15.2887C92.2368 15.2887 95.424 17.0838 99.8144 16.2661L99.232 20.7508Z" fill="url(#paint6_linear_27_1034)"/>
<path d="M255.277 80.3804C252.032 82.9932 248.608 82.923 248.608 82.923L247.098 78.9749C247.098 78.9749 250.515 79.0388 253.766 76.4323L255.277 80.3804Z" fill="url(#paint7_linear_27_1034)"/>
<path d="M293.299 92.2437C290.752 88.3403 291.206 84.5392 291.206 84.5392L295.782 83.2999C295.782 83.2999 295.322 87.0946 297.875 91.0043L293.299 92.2437Z" fill="url(#paint8_linear_27_1034)"/>
<path d="M367.072 62.9208C364.73 66.313 361.459 67.2138 361.459 67.2138L358.906 63.8918C358.906 63.8918 362.176 62.991 364.518 59.5988L367.072 62.9208Z" fill="url(#paint9_linear_27_1034)"/>
<path d="M415.181 18.3807C411.008 20.936 407.034 20.3483 407.034 20.3483L405.862 15.525C405.862 15.525 409.837 16.1128 414.01 13.5574L415.181 18.3807Z" fill="url(#paint10_linear_27_1034)"/>
<path d="M186.47 114.935C182.246 112.776 180.73 109.192 180.73 109.192L184.141 105.794C184.141 105.794 185.658 109.377 189.882 111.537L186.47 114.935Z" fill="url(#paint11_linear_27_1034)"/>
<path d="M226.912 111.435C221.574 111.179 218.355 108.208 218.355 108.208L220.275 103.142C220.275 103.142 223.494 106.113 228.832 106.368L226.912 111.435Z" fill="url(#paint12_linear_27_1034)"/>
<path d="M230.31 98.466C226.682 94.4477 226.522 90.0141 226.522 90.0141L231.546 87.7718C231.546 87.7718 231.706 92.2054 235.334 96.2237L230.31 98.466Z" fill="url(#paint13_linear_27_1034)"/>
<path d="M312 71.1555C309.21 76.2726 304.749 78.023 304.749 78.023L300.666 73.73C300.666 73.73 305.126 71.9796 307.917 66.8625L312 71.1555Z" fill="url(#paint14_linear_27_1034)"/>
<path d="M129.363 197.659C123.904 196.554 121.05 192.989 121.05 192.989L123.827 188.064C123.827 188.064 126.682 191.628 132.141 192.734L129.363 197.659Z" fill="url(#paint15_linear_27_1034)"/>
<path d="M198.63 201.039C194.112 198.081 192.832 193.839 192.832 193.839L197.107 190.402C197.107 190.402 198.387 194.637 202.906 197.602L198.63 201.039Z" fill="url(#paint16_linear_27_1034)"/>
<path d="M223.546 168.381C220.269 169.953 217.376 169.211 217.376 169.211L216.883 165.557C216.883 165.557 219.776 166.292 223.053 164.727L223.546 168.381Z" fill="url(#paint17_linear_27_1034)"/>
<path d="M240.339 121.835C238.15 124.179 235.539 124.499 235.539 124.499L233.952 121.656C233.952 121.656 236.563 121.33 238.752 118.992L240.339 121.835Z" fill="url(#paint18_linear_27_1034)"/>
<path d="M172.179 122.346C169.869 127.169 165.869 128.983 165.869 128.983L161.92 125.246C161.92 125.246 165.92 123.426 168.23 118.609L172.179 122.346Z" fill="url(#paint19_linear_27_1034)"/>
<path d="M167.053 161.52C166.106 165.557 163.373 167.595 163.373 167.595L159.763 165.417C159.763 165.417 162.49 163.379 163.443 159.341L167.053 161.52Z" fill="url(#paint20_linear_27_1034)"/>
<path d="M144.576 159.846C139.584 159.105 136.832 156.013 136.832 156.013L139.11 151.426C139.11 151.426 141.862 154.518 146.854 155.259L144.576 159.846Z" fill="url(#paint21_linear_27_1034)"/>
<path d="M103.418 187.163C101.574 189.341 99.264 189.744 99.264 189.744L97.728 187.284C97.728 187.284 100.038 186.882 101.882 184.703L103.418 187.163Z" fill="url(#paint22_linear_27_1034)"/>
<path d="M47.1872 163.194C45.504 160.728 45.7408 158.294 45.7408 158.294L48.6528 157.438C48.6528 157.438 48.4096 159.878 50.0992 162.337L47.1872 163.194Z" fill="url(#paint23_linear_27_1034)"/>
<path d="M155.366 52.4246C152.755 48.6682 153.101 44.931 153.101 44.931L157.555 43.5894C157.555 43.5894 157.216 47.3266 159.821 51.083L155.366 52.4246Z" fill="url(#paint24_linear_27_1034)"/>
<path d="M109.088 4.86912C107.142 8.72773 103.878 10.1268 103.878 10.1268L100.749 7.04118C100.749 7.04118 104.013 5.64212 105.958 1.78351L109.088 4.86912Z" fill="url(#paint25_linear_27_1034)"/>
<path d="M71.2576 32.2819C73.28 31.2981 75.072 31.7389 75.072 31.7389L75.392 34.0004C75.392 34.0004 73.6 33.5596 71.5776 34.5434L71.2576 32.2819Z" fill="url(#paint26_linear_27_1034)"/>
<path d="M82.4384 56.9348C87.4048 54.4753 89.0496 56.5835 89.0496 56.5835L89.2864 58.5894C89.2864 58.5894 87.6416 56.4812 82.6752 58.9408L82.4384 56.9348Z" fill="url(#paint27_linear_27_1034)"/>
<path d="M77.4464 76.6304C80.416 79.4668 80.7872 82.8144 80.7872 82.8144L77.1136 84.7948C77.1136 84.7948 76.7424 81.4472 73.7728 78.6108L77.4464 76.6304Z" fill="url(#paint28_linear_27_1034)"/>
<path d="M63.2896 105.883C68.0384 107.429 73.3248 113.038 73.3248 113.038L71.5904 114.035C71.5904 114.035 66.304 108.426 61.5552 106.88L63.2896 105.883Z" fill="url(#paint29_linear_27_1034)"/>
<path d="M356.986 4.98412C352.8 6.46623 349.389 5.19493 349.389 5.19493L349.261 0.697478C349.261 0.697478 352.672 1.96878 356.858 0.486664L356.986 4.98412Z" fill="url(#paint30_linear_27_1034)"/>
<path d="M202.739 42.4778C200.845 44.7585 198.451 45.1993 198.451 45.1993L196.832 42.6567C196.832 42.6567 199.226 42.2159 201.12 39.9352L202.739 42.4778Z" fill="url(#paint31_linear_27_1034)"/>
<path d="M438.643 180.691C436.134 182.257 433.722 181.924 433.722 181.924L432.992 179.011C432.992 179.011 435.398 179.35 437.914 177.778L438.643 180.691Z" fill="url(#paint32_linear_27_1034)"/>
<path d="M412.749 90.8382C410.566 93.7449 407.654 94.4285 407.654 94.4285L405.523 91.4131C405.523 91.4131 408.435 90.736 410.618 87.8228L412.749 90.8382Z" fill="url(#paint33_linear_27_1034)"/>
<path d="M383.392 123.796C379.859 121.369 377.19 112.227 377.19 112.227L378.918 110.578C378.918 110.578 381.587 119.72 385.12 122.148L383.392 123.796Z" fill="url(#paint34_linear_27_1034)"/>
<path d="M363.014 45.5954C359.219 47.3522 355.904 46.4578 355.904 46.4578L355.392 42.2478C355.392 42.2478 358.707 43.1422 362.502 41.3854L363.014 45.5954Z" fill="url(#paint35_linear_27_1034)"/>
<path d="M290.4 55.9191C288.653 60.3207 283.104 66.1661 283.104 66.1661L281.248 64.1729C281.248 64.1729 286.797 58.3275 288.544 53.9259L290.4 55.9191Z" fill="url(#paint36_linear_27_1034)"/>
<path d="M293.402 24.686C289.894 26.1618 286.906 25.2418 286.906 25.2418L286.579 21.396C286.579 21.396 289.568 22.3159 293.075 20.8402L293.402 24.686Z" fill="url(#paint37_linear_27_1034)"/>
<path d="M253.754 57.3181C252.698 61.017 250.08 62.7866 250.08 62.7866L246.829 60.6146C246.829 60.6146 249.446 58.845 250.502 55.1461L253.754 57.3181Z" fill="url(#paint38_linear_27_1034)"/>
<path d="M227.962 213.982C225.779 216.888 222.867 217.572 222.867 217.572L220.736 214.557C220.736 214.557 223.648 213.879 225.83 210.966L227.962 213.982Z" fill="url(#paint39_linear_27_1034)"/>
<path d="M182.099 43.7747C179.834 46.0937 177.178 46.362 177.178 46.362L175.642 43.4488C175.642 43.4488 178.291 43.1805 180.563 40.8615L182.099 43.7747Z" fill="url(#paint40_linear_27_1034)"/>
<path d="M85.2032 140.227C82.3936 138.835 81.3632 136.484 81.3632 136.484L83.5904 134.209C83.5904 134.209 84.6208 136.56 87.4304 137.953L85.2032 140.227Z" fill="url(#paint41_linear_27_1034)"/>
<path d="M119.686 90.4358C115.59 92.2692 112.051 91.2726 112.051 91.2726L111.558 86.7496C111.558 86.7496 115.104 87.7526 119.194 85.9128L119.686 90.4358Z" fill="url(#paint42_linear_27_1034)"/>
<path d="M116.896 40.9829C114.4 45.934 110.214 47.7419 110.214 47.7419L106.195 43.7875C106.195 43.7875 110.381 41.9859 112.877 37.0285L116.896 40.9829Z" fill="url(#paint43_linear_27_1034)"/>
<path d="M363.718 189.322C359.571 187.981 357.67 184.953 357.67 184.953L360.269 181.375C360.269 181.375 362.17 184.403 366.31 185.745L363.712 189.322H363.718Z" fill="url(#paint44_linear_27_1034)"/>
<path d="M393.792 151.573C391.949 147.682 392.845 144.271 392.845 144.271L397.184 143.709C397.184 143.709 396.288 147.127 398.131 151.011L393.792 151.573Z" fill="url(#paint45_linear_27_1034)"/>
<path d="M202.195 5.7699C198.528 3.41896 197.459 0.0139307 197.459 0.0139307L200.883 -2.79059C200.883 -2.79059 201.952 0.614445 205.619 2.96539L202.195 5.7699Z" fill="url(#paint46_linear_27_1034)"/>
<path d="M163.354 5.85296C159.475 5.78907 157.069 3.70645 157.069 3.70645L158.342 -0.0180054C158.342 -0.0180054 160.749 2.06462 164.627 2.12851L163.354 5.85296Z" fill="url(#paint47_linear_27_1034)"/>
<path d="M286.605 210.436C282.259 209.842 279.84 207.178 279.84 207.178L281.773 203.172C281.773 203.172 284.192 205.83 288.538 206.43L286.605 210.436Z" fill="url(#paint48_linear_27_1034)"/>
<path d="M135.956 222.81C134.228 219.929 132.353 217.003 131.175 213.841C130.657 212.442 130.471 210.966 130.849 209.51C131.207 208.136 132.078 206.967 133.108 206.015C133.569 205.587 134.081 205.204 134.618 204.872C134.932 204.801 135.258 204.725 135.642 204.648C136.462 204.482 137.281 204.335 138.1 204.188C142.266 203.441 146.516 202.265 150.183 200.093C152.532 198.7 154.689 196.471 154.919 193.628C154.945 193.302 154.932 192.976 154.9 192.651C154.881 192.465 152.218 193.398 152.078 193.456C151.438 193.705 150.798 193.967 150.177 194.267C150.132 194.286 149.428 194.58 149.447 194.746C149.697 197.531 147.924 200.004 145.665 201.473C145.62 201.505 145.569 201.53 145.524 201.562C145.281 201.62 145.038 201.671 144.788 201.729C143.22 202.067 141.383 202.77 139.815 203.089C137.511 203.562 135.521 203.824 133.345 204.712C131.578 205.434 129.831 206.264 128.327 207.446C126.017 209.26 124.705 211.95 125.396 214.876C125.761 216.422 126.554 217.866 127.284 219.265C128.116 220.862 129.006 222.433 129.94 223.973C131.214 226.062 133.14 228.988 131.31 231.339C131.303 231.352 131.29 231.358 131.284 231.371C129.742 231.479 128.167 231.39 126.625 231.339C123.322 231.237 120.007 231.09 116.73 231.562C114.58 231.876 112.519 232.508 110.497 233.281C108.526 234.035 106.439 234.891 104.922 236.399C102.606 238.705 102.087 242.212 102.049 245.33C102.004 248.6 102.394 251.922 101.46 255.11C100.596 258.068 98.5799 260.77 95.9559 262.393C95.8471 262.457 95.7383 262.521 95.6295 262.585C95.6743 262.559 95.0471 262.898 95.4247 262.879C95.8599 262.853 96.3271 262.674 96.7367 262.54C97.9847 262.131 99.2903 261.678 100.436 261.02C103.194 259.429 105.345 257.027 106.548 254.075C107.79 251.009 107.553 247.655 107.508 244.416C107.463 241.228 107.687 237.689 109.729 235.076C110.113 234.591 110.561 234.163 111.054 233.786C112.25 233.568 113.466 233.473 114.676 233.415C117.985 233.262 121.294 233.537 124.602 233.549C126.202 233.549 127.738 233.377 129.287 232.962C130.798 232.559 132.263 231.965 133.69 231.339C134.574 230.956 135.47 230.508 136.206 229.876C138.503 227.889 137.249 224.925 135.962 222.778L135.956 222.81Z" fill="url(#paint49_linear_27_1034)"/>
<path d="M145.901 201.326C145.619 201.639 145.338 201.965 145.037 202.259C144.928 202.361 144.819 202.457 144.71 202.553C146.618 201.914 148.461 201.115 150.182 200.1C152.531 198.707 154.688 196.477 154.918 193.634C154.944 193.309 154.931 192.983 154.899 192.657C154.88 192.472 152.218 193.404 152.077 193.462C151.437 193.711 150.797 193.973 150.176 194.273C150.131 194.292 149.427 194.586 149.446 194.752C149.69 197.442 148.045 199.831 145.901 201.32V201.326Z" fill="url(#paint50_linear_27_1034)"/>
<path d="M135.955 222.81C134.227 219.929 132.352 217.003 131.174 213.841C130.656 212.442 130.47 210.966 130.848 209.51C131.206 208.136 132.077 206.967 133.107 206.015C133.485 205.664 133.901 205.344 134.33 205.057C133.632 204.974 132.928 205.038 132.237 205.191C130.854 205.804 129.517 206.52 128.32 207.453C126.01 209.267 124.698 211.956 125.389 214.882C125.754 216.428 126.547 217.872 127.277 219.271C128.109 220.868 128.998 222.44 129.933 223.979C131.136 225.953 132.922 228.675 131.571 230.956C131.84 231.288 132.013 231.709 131.878 232.112C132.486 231.876 133.088 231.62 133.683 231.364C134.566 230.981 135.462 230.534 136.198 229.901C138.496 227.915 137.242 224.95 135.955 222.804V222.81Z" fill="url(#paint51_linear_27_1034)"/>
<path d="M318.541 34.4156C317.811 42.037 322.08 49.1601 330.451 48.3999C336.781 47.8249 343.45 46.9114 345.92 40.0502C345.677 40.7338 340.915 39.833 340.646 40.5804C339.763 43.0272 338.234 44.8543 336.109 46.33C335.066 47.0519 333.869 47.5246 332.672 47.9207C331.462 48.2146 331.699 48.2146 333.363 47.9207C332.525 47.8952 331.712 47.6971 330.906 47.4799C325.088 45.9339 323.322 39.0791 323.821 33.879C323.795 34.1792 318.579 34.0323 318.547 34.4092L318.541 34.4156Z" fill="url(#paint52_linear_27_1034)"/>
<path d="M345.92 40.0502C345.677 40.7338 340.915 39.833 340.646 40.5804C339.763 43.0272 338.234 44.8543 336.109 46.33C335.136 47.0072 334.022 47.4608 332.902 47.8377C333.242 47.8952 333.613 47.9527 334.003 48.0038C339.123 47.2755 343.91 45.6273 345.92 40.0502Z" fill="url(#paint53_linear_27_1034)"/>
<path d="M47.4752 71.9476C49.824 70.7721 49.504 67.7888 49.3248 65.5911C49.1264 63.106 49.1776 60.902 51.1872 59.5605C50.4384 59.8863 49.7984 60.0715 48.8448 60.4932C46.4832 61.5345 45.9648 63.8024 46.0736 66.1725C46.176 68.4276 46.9248 71.9412 44.3904 73.2061C45.12 72.842 46.5472 72.414 47.4752 71.9476Z" fill="url(#paint54_linear_27_1034)"/>
<path d="M27.7248 68.0699C31.0208 70.1205 34.5024 71.8326 38.1504 73.155C39.5776 73.6725 41.3376 74.2922 42.8608 73.7875C44.2176 73.3339 45.7408 72.9187 46.9504 72.1457C46.0032 72.7462 44.6656 72.7526 43.712 73.3595C43.5264 73.4936 43.328 73.6022 43.1168 73.6917C44.1216 73.3148 45.1264 72.9314 46.1312 72.5545C46.0224 72.5929 45.92 72.6312 45.8112 72.6695L46.0352 72.5929C43.5968 73.1806 40.9088 71.8199 38.7072 70.9063C36.0128 69.782 33.4336 68.4084 30.9568 66.8624C30.7712 66.7474 29.5232 67.3799 29.3312 67.4566C29.1648 67.5204 27.8656 68.1721 27.7184 68.0826L27.7248 68.0699Z" fill="url(#paint55_linear_27_1034)"/>
<path d="M62.3872 65.3037C63.8336 65.0992 64.7424 64.3326 65.1456 62.9016C65.5936 61.2917 66.0224 59.9629 67.7632 59.3816C66.6944 59.7393 65.408 59.4519 64.3328 59.816C62.9632 60.276 62.208 61.3045 61.8688 62.6716C61.5168 64.0899 61.056 65.2206 59.5264 65.6423C59.6032 65.6295 59.68 65.6167 59.7568 65.6039C59.648 65.6167 59.5328 65.6359 59.424 65.6486C58.7904 65.7381 59.9488 65.6039 60.0448 65.5975C60.8256 65.5017 61.6128 65.4059 62.3936 65.2973L62.3872 65.3037Z" fill="url(#paint56_linear_27_1034)"/>
<path d="M49.856 60.1227C51.2192 59.6883 52.4288 60.4421 52.4288 60.4421C54.4768 61.5345 56.0768 64.3263 57.8688 65.3995C59.072 66.1214 60.3456 65.9489 61.6128 65.572C61.6576 65.6039 62.0416 65.4953 62.7648 65.2462C62.9504 65.1951 63.136 65.1376 63.3152 65.0801C61.5616 64.8884 60.3904 63.8216 60.3904 63.8216C59.0272 62.7739 57.9008 61.1768 56.6208 60.0843C55.5776 59.1964 54.3616 58.8194 53.056 59.1388C53.0688 59.1325 53.0816 59.1261 53.0944 59.1197C53.056 59.1325 53.0112 59.1452 52.9728 59.158C52.9344 59.1644 52.9024 59.1708 52.864 59.1836C51.8976 59.4647 50.6496 59.6627 49.696 60.1802C49.7472 60.161 49.7984 60.1418 49.8496 60.1291L49.856 60.1227Z" fill="url(#paint57_linear_27_1034)"/>
<path d="M448.634 105.928C448.864 104.094 448.122 102.325 447.552 100.613C446.752 98.2105 444.928 96.722 442.682 95.6871C440.026 94.4605 437.683 94.6649 435.629 96.7539C433.818 98.5938 432.39 101.334 429.408 101.117C429.53 101.494 429.658 101.871 429.779 102.248C429.51 101.405 429.242 100.568 428.973 99.7245C428.896 99.4754 428.627 98.7088 428.614 98.6513C428.794 99.2901 428.998 99.929 429.203 100.561C429.472 101.405 429.741 102.242 430.01 103.085C430.035 103.155 430.298 104.209 430.381 104.216C434.528 104.516 435.712 99.2518 439.251 98.0891C441.267 97.4247 443.744 98.6832 445.408 99.7182C446.253 100.242 446.957 100.945 447.565 101.731C448.154 102.491 448.058 103.449 447.693 101.36C447.776 101.845 447.725 102.344 447.661 102.829C447.539 103.813 448.755 104.963 448.634 105.928Z" fill="url(#paint58_linear_27_1034)"/>
<mask id="path-64-inside-1_27_1034" fill="white">
<path d="M0 191H480V216H0V191Z"/>
</mask>
<path d="M480 210H0V222H480V210Z" fill="#4F46E5" mask="url(#path-64-inside-1_27_1034)"/>
</g>
<defs>
<linearGradient id="paint0_linear_27_1034" x1="295.565" y1="133.43" x2="300.973" y2="133.43" gradientUnits="userSpaceOnUse">
<stop stop-color="#F8B54A"/>
<stop offset="1" stop-color="#F8A629"/>
</linearGradient>
<linearGradient id="paint1_linear_27_1034" x1="225.069" y1="163.168" x2="233.984" y2="163.168" gradientUnits="userSpaceOnUse">
<stop stop-color="#F44274"/>
<stop offset="1" stop-color="#E51F9A"/>
</linearGradient>
<linearGradient id="paint2_linear_27_1034" x1="210.146" y1="139.516" x2="214.432" y2="147.983" gradientUnits="userSpaceOnUse">
<stop stop-color="#6DD0E7"/>
<stop offset="1" stop-color="#01A7DB"/>
</linearGradient>
<linearGradient id="paint3_linear_27_1034" x1="184.928" y1="145.849" x2="193.21" y2="145.849" gradientUnits="userSpaceOnUse">
<stop stop-color="#F71873"/>
<stop offset="1" stop-color="#F8A629"/>
</linearGradient>
<linearGradient id="paint4_linear_27_1034" x1="130.881" y1="116.016" x2="134.949" y2="105.799" gradientUnits="userSpaceOnUse">
<stop stop-color="#F44274"/>
<stop offset="1" stop-color="#E51F9A"/>
</linearGradient>
<linearGradient id="paint5_linear_27_1034" x1="106.912" y1="63.1061" x2="116.314" y2="63.1061" gradientUnits="userSpaceOnUse">
<stop stop-color="#BE1E68"/>
<stop offset="1" stop-color="#B5188D"/>
</linearGradient>
<linearGradient id="paint6_linear_27_1034" x1="91.6544" y1="18.1251" x2="99.8144" y2="18.1251" gradientUnits="userSpaceOnUse">
<stop stop-color="#FBE422"/>
<stop offset="1" stop-color="#C8D92B"/>
</linearGradient>
<linearGradient id="paint7_linear_27_1034" x1="247.098" y1="79.6776" x2="255.277" y2="79.6776" gradientUnits="userSpaceOnUse">
<stop stop-color="#6DD0E7"/>
<stop offset="1" stop-color="#01A7DB"/>
</linearGradient>
<linearGradient id="paint8_linear_27_1034" x1="291.181" y1="87.7718" x2="297.882" y2="87.7718" gradientUnits="userSpaceOnUse">
<stop stop-color="#BE1E68"/>
<stop offset="1" stop-color="#B5188D"/>
</linearGradient>
<linearGradient id="paint9_linear_27_1034" x1="358.906" y1="63.4063" x2="367.072" y2="63.4063" gradientUnits="userSpaceOnUse">
<stop stop-color="#B5188D"/>
<stop offset="1" stop-color="#4E69AE"/>
</linearGradient>
<linearGradient id="paint10_linear_27_1034" x1="405.869" y1="16.9816" x2="415.181" y2="16.9816" gradientUnits="userSpaceOnUse">
<stop stop-color="#FBE422"/>
<stop offset="1" stop-color="#C8D92B"/>
</linearGradient>
<linearGradient id="paint11_linear_27_1034" x1="180.73" y1="110.368" x2="189.888" y2="110.368" gradientUnits="userSpaceOnUse">
<stop stop-color="#B5188D"/>
<stop offset="1" stop-color="#4E69AE"/>
</linearGradient>
<linearGradient id="paint12_linear_27_1034" x1="218.355" y1="107.288" x2="228.832" y2="107.288" gradientUnits="userSpaceOnUse">
<stop stop-color="#F8B54A"/>
<stop offset="1" stop-color="#F8A629"/>
</linearGradient>
<linearGradient id="paint13_linear_27_1034" x1="226.522" y1="93.1189" x2="235.334" y2="93.1189" gradientUnits="userSpaceOnUse">
<stop stop-color="#B4DF86"/>
<stop offset="1" stop-color="#84C743"/>
</linearGradient>
<linearGradient id="paint14_linear_27_1034" x1="300.666" y1="72.4396" x2="312" y2="72.4396" gradientUnits="userSpaceOnUse">
<stop stop-color="#F8B54A"/>
<stop offset="1" stop-color="#F8A629"/>
</linearGradient>
<linearGradient id="paint15_linear_27_1034" x1="121.05" y1="192.868" x2="132.134" y2="192.868" gradientUnits="userSpaceOnUse">
<stop stop-color="#B4DF86"/>
<stop offset="1" stop-color="#84C743"/>
</linearGradient>
<linearGradient id="paint16_linear_27_1034" x1="192.832" y1="195.723" x2="202.912" y2="195.723" gradientUnits="userSpaceOnUse">
<stop stop-color="#FBE422"/>
<stop offset="1" stop-color="#C8D92B"/>
</linearGradient>
<linearGradient id="paint17_linear_27_1034" x1="216.89" y1="167.059" x2="223.546" y2="167.059" gradientUnits="userSpaceOnUse">
<stop stop-color="#F8B54A"/>
<stop offset="1" stop-color="#F8A629"/>
</linearGradient>
<linearGradient id="paint18_linear_27_1034" x1="233.958" y1="121.752" x2="240.339" y2="121.752" gradientUnits="userSpaceOnUse">
<stop stop-color="#BE1E68"/>
<stop offset="1" stop-color="#B5188D"/>
</linearGradient>
<linearGradient id="paint19_linear_27_1034" x1="161.926" y1="123.796" x2="172.179" y2="123.796" gradientUnits="userSpaceOnUse">
<stop stop-color="#6DD0E7"/>
<stop offset="1" stop-color="#01A7DB"/>
</linearGradient>
<linearGradient id="paint20_linear_27_1034" x1="159.763" y1="163.468" x2="167.053" y2="163.468" gradientUnits="userSpaceOnUse">
<stop stop-color="#F44274"/>
<stop offset="1" stop-color="#E51F9A"/>
</linearGradient>
<linearGradient id="paint21_linear_27_1034" x1="136.832" y1="155.636" x2="146.854" y2="155.636" gradientUnits="userSpaceOnUse">
<stop stop-color="#B5188D"/>
<stop offset="1" stop-color="#4E69AE"/>
</linearGradient>
<linearGradient id="paint22_linear_27_1034" x1="97.728" y1="187.22" x2="103.418" y2="187.22" gradientUnits="userSpaceOnUse">
<stop stop-color="#BE1E68"/>
<stop offset="1" stop-color="#B5188D"/>
</linearGradient>
<linearGradient id="paint23_linear_27_1034" x1="45.7344" y1="160.312" x2="50.1056" y2="160.312" gradientUnits="userSpaceOnUse">
<stop stop-color="#F8B54A"/>
<stop offset="1" stop-color="#F8A629"/>
</linearGradient>
<linearGradient id="paint24_linear_27_1034" x1="153.082" y1="48.0102" x2="159.821" y2="48.0102" gradientUnits="userSpaceOnUse">
<stop stop-color="#BE1E68"/>
<stop offset="1" stop-color="#B5188D"/>
</linearGradient>
<linearGradient id="paint25_linear_27_1034" x1="100.749" y1="5.95515" x2="109.088" y2="5.95515" gradientUnits="userSpaceOnUse">
<stop stop-color="#6DD0E7"/>
<stop offset="1" stop-color="#01A7DB"/>
</linearGradient>
<linearGradient id="paint26_linear_27_1034" x1="75.3895" y1="32.3976" x2="71.4652" y2="33.2936" gradientUnits="userSpaceOnUse">
<stop stop-color="#F71873"/>
<stop offset="1" stop-color="#F8A629"/>
</linearGradient>
<linearGradient id="paint27_linear_27_1034" x1="89.2238" y1="56.6189" x2="82.6605" y2="58.1175" gradientUnits="userSpaceOnUse">
<stop stop-color="#FBE422"/>
<stop offset="1" stop-color="#C8D92B"/>
</linearGradient>
<linearGradient id="paint28_linear_27_1034" x1="80.3014" y1="79.8389" x2="74.518" y2="81.1595" gradientUnits="userSpaceOnUse">
<stop stop-color="#BE1E68"/>
<stop offset="1" stop-color="#B5188D"/>
</linearGradient>
<linearGradient id="paint29_linear_27_1034" x1="72.486" y1="108.626" x2="62.6349" y2="110.875" gradientUnits="userSpaceOnUse">
<stop stop-color="#6DD0E7"/>
<stop offset="1" stop-color="#01A7DB"/>
</linearGradient>
<linearGradient id="paint30_linear_27_1034" x1="349.261" y1="3.09314" x2="356.986" y2="3.09314" gradientUnits="userSpaceOnUse">
<stop stop-color="#FBE422"/>
<stop offset="1" stop-color="#C8D92B"/>
</linearGradient>
<linearGradient id="paint31_linear_27_1034" x1="196.826" y1="42.5672" x2="202.739" y2="42.5672" gradientUnits="userSpaceOnUse">
<stop stop-color="#6DD0E7"/>
<stop offset="1" stop-color="#01A7DB"/>
</linearGradient>
<linearGradient id="paint32_linear_27_1034" x1="432.992" y1="179.867" x2="438.643" y2="179.867" gradientUnits="userSpaceOnUse">
<stop stop-color="#F71873"/>
<stop offset="1" stop-color="#F8A629"/>
</linearGradient>
<linearGradient id="paint33_linear_27_1034" x1="405.523" y1="91.1193" x2="412.749" y2="91.1193" gradientUnits="userSpaceOnUse">
<stop stop-color="#F87D5E"/>
<stop offset="1" stop-color="#EB622C"/>
</linearGradient>
<linearGradient id="paint34_linear_27_1034" x1="377.19" y1="117.191" x2="385.12" y2="117.191" gradientUnits="userSpaceOnUse">
<stop stop-color="#FBE422"/>
<stop offset="1" stop-color="#C8D92B"/>
</linearGradient>
<linearGradient id="paint35_linear_27_1034" x1="355.392" y1="44.0366" x2="363.014" y2="44.0366" gradientUnits="userSpaceOnUse">
<stop stop-color="#6DD0E7"/>
<stop offset="1" stop-color="#01A7DB"/>
</linearGradient>
<linearGradient id="paint36_linear_27_1034" x1="281.248" y1="60.046" x2="290.4" y2="60.046" gradientUnits="userSpaceOnUse">
<stop stop-color="#F71873"/>
<stop offset="1" stop-color="#F8A629"/>
</linearGradient>
<linearGradient id="paint37_linear_27_1034" x1="286.573" y1="23.1784" x2="293.402" y2="23.1784" gradientUnits="userSpaceOnUse">
<stop stop-color="#F8B54A"/>
<stop offset="1" stop-color="#F8A629"/>
</linearGradient>
<linearGradient id="paint38_linear_27_1034" x1="246.829" y1="58.9663" x2="253.754" y2="58.9663" gradientUnits="userSpaceOnUse">
<stop stop-color="#F71873"/>
<stop offset="1" stop-color="#C6211B"/>
</linearGradient>
<linearGradient id="paint39_linear_27_1034" x1="220.736" y1="214.269" x2="227.962" y2="214.269" gradientUnits="userSpaceOnUse">
<stop stop-color="#B4DF86"/>
<stop offset="1" stop-color="#84C743"/>
</linearGradient>
<linearGradient id="paint40_linear_27_1034" x1="175.642" y1="43.6149" x2="182.099" y2="43.6149" gradientUnits="userSpaceOnUse">
<stop stop-color="#BE1E68"/>
<stop offset="1" stop-color="#B5188D"/>
</linearGradient>
<linearGradient id="paint41_linear_27_1034" x1="81.3632" y1="137.225" x2="87.4304" y2="137.225" gradientUnits="userSpaceOnUse">
<stop stop-color="#F44274"/>
<stop offset="1" stop-color="#E51F9A"/>
</linearGradient>
<linearGradient id="paint42_linear_27_1034" x1="111.552" y1="88.7237" x2="119.686" y2="88.7237" gradientUnits="userSpaceOnUse">
<stop stop-color="#6DD0E7"/>
<stop offset="1" stop-color="#01A7DB"/>
</linearGradient>
<linearGradient id="paint43_linear_27_1034" x1="106.202" y1="42.382" x2="116.896" y2="42.382" gradientUnits="userSpaceOnUse">
<stop stop-color="#F8B54A"/>
<stop offset="1" stop-color="#F8A629"/>
</linearGradient>
<linearGradient id="paint44_linear_27_1034" x1="357.677" y1="185.349" x2="366.317" y2="185.349" gradientUnits="userSpaceOnUse">
<stop stop-color="#F71873"/>
<stop offset="1" stop-color="#F8A629"/>
</linearGradient>
<linearGradient id="paint45_linear_27_1034" x1="392.627" y1="147.638" x2="398.131" y2="147.638" gradientUnits="userSpaceOnUse">
<stop stop-color="#B4DF86"/>
<stop offset="1" stop-color="#84C743"/>
</linearGradient>
<linearGradient id="paint46_linear_27_1034" x1="197.312" y1="0.411633" x2="205.674" y2="2.60773" gradientUnits="userSpaceOnUse">
<stop stop-color="#F71873"/>
<stop offset="1" stop-color="#F8A629"/>
</linearGradient>
<linearGradient id="paint47_linear_27_1034" x1="157.069" y1="2.91428" x2="164.627" y2="2.91428" gradientUnits="userSpaceOnUse">
<stop stop-color="#FBE422"/>
<stop offset="1" stop-color="#C8D92B"/>
</linearGradient>
<linearGradient id="paint48_linear_27_1034" x1="279.846" y1="206.807" x2="288.544" y2="206.807" gradientUnits="userSpaceOnUse">
<stop stop-color="#F44274"/>
<stop offset="1" stop-color="#E51F9A"/>
</linearGradient>
<linearGradient id="paint49_linear_27_1034" x1="112.732" y1="221.14" x2="134.826" y2="233.004" gradientUnits="userSpaceOnUse">
<stop stop-color="#F71873"/>
<stop offset="1" stop-color="#C6211B"/>
</linearGradient>
<linearGradient id="paint50_linear_27_1034" x1="152.785" y1="190.129" x2="147.095" y2="206.014" gradientUnits="userSpaceOnUse">
<stop stop-color="#F44274"/>
<stop offset="1" stop-color="#E51F9A"/>
</linearGradient>
<linearGradient id="paint51_linear_27_1034" x1="129.645" y1="205.611" x2="132.434" y2="229.745" gradientUnits="userSpaceOnUse">
<stop stop-color="#F44274"/>
<stop offset="1" stop-color="#E51F9A"/>
</linearGradient>
<linearGradient id="paint52_linear_27_1034" x1="327.775" y1="24.969" x2="335.683" y2="50.4091" gradientUnits="userSpaceOnUse">
<stop stop-color="#F44274"/>
<stop offset="1" stop-color="#E51F9A"/>
</linearGradient>
<linearGradient id="paint53_linear_27_1034" x1="319.822" y1="58.3366" x2="374.012" y2="19.708" gradientUnits="userSpaceOnUse">
<stop stop-color="#B5188D"/>
<stop offset="1" stop-color="#4E69AE"/>
</linearGradient>
<linearGradient id="paint54_linear_27_1034" x1="54.7643" y1="80.6844" x2="42.1595" y2="54.7366" gradientUnits="userSpaceOnUse">
<stop stop-color="#B5188D"/>
<stop offset="1" stop-color="#4E69AE"/>
</linearGradient>
<linearGradient id="paint55_linear_27_1034" x1="42.2977" y1="80.2537" x2="33.5241" y2="62.1925" gradientUnits="userSpaceOnUse">
<stop stop-color="#F71873"/>
<stop offset="1" stop-color="#C6211B"/>
</linearGradient>
<linearGradient id="paint56_linear_27_1034" x1="68.5255" y1="56.5432" x2="56.3963" y2="71.7059" gradientUnits="userSpaceOnUse">
<stop stop-color="#B5188D"/>
<stop offset="1" stop-color="#4E69AE"/>
</linearGradient>
<linearGradient id="paint57_linear_27_1034" x1="62.9634" y1="70.1723" x2="51.5809" y2="56.8439" gradientUnits="userSpaceOnUse">
<stop stop-color="#F71873"/>
<stop offset="1" stop-color="#C6211B"/>
</linearGradient>
<linearGradient id="paint58_linear_27_1034" x1="425.843" y1="100.427" x2="449.44" y2="100.427" gradientUnits="userSpaceOnUse">
<stop stop-color="#6DD0E7"/>
<stop offset="1" stop-color="#01A7DB"/>
</linearGradient>
<clipPath id="clip0_27_1034">
<path d="M0 8C0 3.58172 3.58172 0 8 0H472C476.418 0 480 3.58172 480 8V208C480 212.418 476.418 216 472 216H7.99999C3.58171 216 0 212.418 0 208V8Z" fill="white"/>
</clipPath>
</defs>
</svg>
