<svg width="20" height="20" viewBox="0 0 20 20" fill="none" xmlns="http://www.w3.org/2000/svg">
<g clip-path="url(#clip0_27_1151)">
<path d="M16.7344 7.73438L14.3906 9.60938C14.1094 9.84375 13.7031 9.84375 13.4219 9.60938L10.4844 7.26562C10.2031 7.03125 9.79689 7.03125 9.51564 7.26562L6.57814 9.60938C6.29689 9.84375 5.89064 9.84375 5.60939 9.60938L3.18751 7.67188C2.71876 7.29688 2.03126 7.5625 1.92189 8.15625C1.56251 10.2812 1.20314 14.5938 3.45314 17.4688C3.62501 17.6875 3.90626 17.8281 4.18751 17.8281C4.46876 17.8281 6.00001 17 10 17C14 17 15.4531 17.8281 15.7656 17.8281C16.0781 17.8281 16.3594 17.6875 16.5313 17.4219C18.3281 14.7188 18.2031 10.4688 17.9844 8.28125C17.9375 7.65625 17.2188 7.35938 16.7344 7.73438ZM3.65626 13.5156C3.42189 13.5156 3.23439 13.3438 3.18751 13.1094C3.06251 12.2656 3.03126 11.3281 3.07814 10.3438C3.09376 10.0781 3.31251 9.89062 3.57814 9.90625C3.84376 9.92188 4.03126 10.1406 4.01564 10.4062C3.96876 11.3281 4.00001 12.2031 4.10939 12.9844C4.14064 13.2344 3.96876 13.4844 3.71876 13.5156H3.65626ZM4.92189 16.3281C4.84376 16.375 4.75001 16.4062 4.67189 16.4062C4.51564 16.4062 4.37501 16.3281 4.28126 16.1875C4.14064 15.9688 4.00001 15.7188 3.87501 15.4688C3.76564 15.2344 3.85939 14.9531 4.09376 14.8438C4.32814 14.7344 4.60939 14.8281 4.71876 15.0625C4.82814 15.2812 4.93751 15.4844 5.06251 15.6719C5.20314 15.9062 5.14064 16.1875 4.92189 16.3281ZM10.4688 4.375V2.1875C10.4688 1.92188 10.2656 1.71875 10 1.71875C9.73439 1.71875 9.53126 1.92188 9.53126 2.1875V4.375C9.53126 4.64062 9.73439 4.84375 10 4.84375C10.2656 4.84375 10.4688 4.64062 10.4688 4.375ZM6.57814 5.67188C6.65626 5.67188 6.75001 5.65625 6.81251 5.60938C7.03126 5.46875 7.10939 5.1875 6.96876 4.96875L6.00001 3.35938C5.85939 3.14062 5.57814 3.0625 5.35939 3.20312C5.14064 3.34375 5.06251 3.625 5.20314 3.84375L6.17189 5.45313C6.26564 5.57813 6.42189 5.67188 6.57814 5.67188ZM13.4219 5.67188C13.5781 5.67188 13.7344 5.59375 13.8281 5.4375L14.7969 3.82812C14.9375 3.60938 14.8594 3.3125 14.6406 3.1875C14.4219 3.04688 14.125 3.125 14 3.34375L13.0313 4.95312C12.8906 5.17188 12.9688 5.46875 13.1875 5.59375C13.25 5.64062 13.3438 5.67188 13.4219 5.67188Z" fill="url(#paint0_linear_27_1151)"/>
</g>
<defs>
<linearGradient id="paint0_linear_27_1151" x1="2" y1="2" x2="18" y2="18" gradientUnits="userSpaceOnUse">
<stop stop-color="#FFC40C"/>
<stop offset="1" stop-color="#FFE94C"/>
</linearGradient>
<clipPath id="clip0_27_1151">
<rect width="20" height="20" fill="white"/>
</clipPath>
</defs>
</svg>
