<svg width="48" height="48" viewBox="0 0 48 48" fill="none" xmlns="http://www.w3.org/2000/svg">
<path d="M0 8C0 3.58172 3.58172 0 8 0H40C44.4183 0 48 3.58172 48 8V40C48 44.4183 44.4183 48 40 48H8C3.58172 48 0 44.4183 0 40V8Z" fill="#EAE9FC"/>
<path d="M18.858 16.602C18.889 16.0843 19.1228 15.5997 19.5089 15.2534C19.8949 14.907 20.402 14.7269 20.92 14.752H27.08C27.598 14.7269 28.105 14.907 28.4911 15.2534C28.8771 15.5997 29.111 16.0843 29.142 16.602M18.858 16.602V22.679C18.8772 23.6786 19.169 24.654 19.7019 25.4999C20.2348 26.3458 20.9886 27.0301 21.882 27.479C22.5343 27.825 23.2615 28.006 24 28.006C24.7384 28.006 25.4656 27.825 26.118 27.479C27.0113 27.0301 27.7651 26.3458 28.298 25.4999C28.831 24.654 29.1228 23.6786 29.142 22.679V16.602M18.858 16.602L16.804 16.602C16.2875 16.5793 15.7827 16.7605 15.3987 17.1066C15.0146 17.4527 14.782 17.9359 14.751 18.452C14.754 19.612 15.053 20.752 15.621 21.763C16.215 22.8088 17.0446 23.7017 18.044 24.371L18.858 24.926L19.653 25.407M29.142 16.602L31.196 16.602C31.7125 16.5793 32.2172 16.7605 32.6013 17.1066C32.9854 17.4527 33.218 17.9359 33.249 18.452C33.2461 19.6118 32.9466 20.7516 32.379 21.763C31.7849 22.8088 30.9553 23.7017 29.956 24.371L29.142 24.926L28.347 25.407M21.947 30.475V27.506M26.053 30.475V27.506M27.19 30.475C27.4464 30.4748 27.7003 30.5251 27.9373 30.6231C28.1742 30.7211 28.3895 30.8648 28.5708 31.0462C28.7521 31.2275 28.8959 31.4428 28.9939 31.6797C29.0919 31.9167 29.1422 32.1706 29.142 32.427V32.76C29.142 32.89 29.0904 33.0146 28.9985 33.1065C28.9066 33.1984 28.7819 33.25 28.652 33.25H19.348C19.218 33.25 19.0934 33.1984 19.0015 33.1065C18.9096 33.0146 18.858 32.89 18.858 32.76V32.427C18.8577 32.1707 18.908 31.9168 19.0059 31.6799C19.1039 31.4431 19.2476 31.2278 19.4288 31.0465C19.61 30.8652 19.8251 30.7214 20.062 30.6234C20.2988 30.5253 20.5526 30.4749 20.809 30.475H27.19Z" stroke="#4F46E5" stroke-width="1.5" stroke-linecap="round"/>
</svg>
