<svg width="48" height="48" viewBox="0 0 48 48" fill="none" xmlns="http://www.w3.org/2000/svg">
<path d="M0 8C0 3.58172 3.58172 0 8 0H40C44.4183 0 48 3.58172 48 8V40C48 44.4183 44.4183 48 40 48H8C3.58172 48 0 44.4183 0 40V8Z" fill="#EAE9FC"/>
<path d="M24 19C23.0111 19 22.0444 19.2932 21.2221 19.8426C20.3999 20.392 19.759 21.1729 19.3806 22.0866C19.0021 23.0002 18.9031 24.0055 19.0961 24.9754C19.289 25.9453 19.7652 26.8363 20.4645 27.5355C21.1637 28.2348 22.0546 28.711 23.0245 28.9039C23.9944 29.0968 24.9998 28.9978 25.9134 28.6194C26.827 28.2409 27.6079 27.6001 28.1573 26.7778C28.7067 25.9556 29 24.9889 29 24M25 15.055C23.1461 14.847 21.2733 15.2203 19.6408 16.1232C18.0083 17.0261 16.6967 18.4139 15.8874 20.0948C15.0782 21.7758 14.8113 23.6666 15.1236 25.5058C15.436 27.345 16.3122 29.0418 17.631 30.3612C18.9498 31.6807 20.6461 32.5578 22.4852 32.8711C24.3242 33.1844 26.2152 32.9184 27.8965 32.11C29.5779 31.3016 30.9664 29.9907 31.8701 28.3586C32.7738 26.7266 33.148 24.854 32.941 23M27 21V18L30 15V18H33L30 21H27ZM27 21L24 24M23 24C23 24.2652 23.1053 24.5196 23.2929 24.7071C23.4804 24.8946 23.7348 25 24 25C24.2652 25 24.5196 24.8946 24.7071 24.7071C24.8946 24.5196 25 24.2652 25 24C25 23.7348 24.8946 23.4804 24.7071 23.2929C24.5196 23.1053 24.2652 23 24 23C23.7348 23 23.4804 23.1053 23.2929 23.2929C23.1053 23.4804 23 23.7348 23 24Z" stroke="#4F46E5" stroke-width="1.5" stroke-linecap="round" stroke-linejoin="round"/>
</svg>
