<svg width="40" height="41" viewBox="0 0 40 41" fill="none" xmlns="http://www.w3.org/2000/svg">
<path d="M0 20.5C0 9.45431 8.95431 0.5 20 0.5V0.5C31.0457 0.5 40 9.45431 40 20.5V20.5C40 31.5457 31.0457 40.5 20 40.5V40.5C8.95431 40.5 0 31.5457 0 20.5V20.5Z" fill="#4F46E5"/>
<path d="M19.5578 19.0153C19.5985 18.9305 19.6615 18.8591 19.7397 18.8091C19.8179 18.7592 19.9081 18.7327 20.0002 18.7327C20.0923 18.7327 20.1825 18.7592 20.2607 18.8091C20.3389 18.8591 20.4019 18.9305 20.4426 19.0153L21.9148 22.0777C21.9501 22.1514 22.0024 22.2152 22.0671 22.2635C22.1318 22.3118 22.2069 22.3433 22.2861 22.3551L25.5781 22.8463C25.6691 22.86 25.7546 22.8995 25.8249 22.9603C25.8951 23.0212 25.9474 23.1011 25.9759 23.1909C26.0043 23.2806 26.0077 23.3768 25.9857 23.4685C25.9637 23.5601 25.9172 23.6437 25.8514 23.7096L23.4693 26.0935C23.412 26.1508 23.3691 26.2215 23.3444 26.2996C23.3196 26.3776 23.3138 26.4607 23.3272 26.5416L23.8895 29.9078C23.9049 30.0009 23.8948 30.0965 23.8601 30.184C23.8254 30.2714 23.7677 30.3471 23.6933 30.4026C23.6189 30.4581 23.5309 30.4912 23.4392 30.4981C23.3475 30.5049 23.2558 30.4854 23.1744 30.4415L20.23 28.8526C20.1592 28.8144 20.0805 28.7944 20.0005 28.7944C19.9205 28.7944 19.8417 28.8144 19.7709 28.8526L16.8266 30.4415C16.7451 30.4856 16.6533 30.5054 16.5614 30.4987C16.4695 30.492 16.3813 30.459 16.3068 30.4034C16.2323 30.3479 16.1744 30.272 16.1397 30.1844C16.105 30.0968 16.0949 30.001 16.1105 29.9078L16.6727 26.5416C16.6863 26.4608 16.6804 26.3777 16.6558 26.2996C16.6311 26.2216 16.5884 26.1508 16.5312 26.0935L14.1491 23.7096C14.0831 23.6437 14.0365 23.5601 14.0144 23.4684C13.9923 23.3766 13.9957 23.2804 14.0241 23.1905C14.0525 23.1006 14.1049 23.0207 14.1753 22.9598C14.2456 22.8989 14.3312 22.8594 14.4223 22.8458L17.7143 22.3546C17.7934 22.3428 17.8686 22.3115 17.9333 22.2632C17.998 22.215 18.0503 22.1513 18.0857 22.0777L19.5578 19.0153ZM25.9184 10.5H14.082V15.5635L20.0002 18.0952L25.9184 15.5635V10.5Z" stroke="white" stroke-width="1.5" stroke-linecap="round" stroke-linejoin="round"/>
</svg>
