<svg width="14" height="14" viewBox="0 0 14 14" fill="none" xmlns="http://www.w3.org/2000/svg">
<path d="M7 14C7.91942 14.0011 8.83 13.8206 9.67943 13.4687C10.5289 13.1169 11.3004 12.6006 11.9497 11.9497C12.6006 11.3004 13.1169 10.5289 13.4687 9.67943C13.8206 8.83 14.0011 7.91942 14 7C14.0011 6.08058 13.8206 5.17 13.4687 4.32057C13.1169 3.47115 12.6006 2.69961 11.9497 2.0503C11.3004 1.39936 10.5289 0.883131 9.67943 0.531275C8.83 0.179419 7.91942 -0.00112846 7 5.30667e-06C6.08058 -0.00112846 5.17 0.179419 4.32057 0.531275C3.47115 0.883131 2.69961 1.39936 2.0503 2.0503C1.39936 2.69961 0.883131 3.47115 0.531275 4.32057C0.179419 5.17 -0.00112846 6.08058 5.30667e-06 7C-0.00112846 7.91942 0.179419 8.83 0.531275 9.67943C0.883131 10.5289 1.39936 11.3004 2.0503 11.9497C2.69961 12.6006 3.47115 13.1169 4.32057 13.4687C5.17 13.8206 6.08058 14.0011 7 14Z" fill="#1FC16B"/>
</svg>
