<svg width="48" height="49" viewBox="0 0 48 49" fill="none" xmlns="http://www.w3.org/2000/svg">
<path d="M0 8.5C0 4.08172 3.58172 0.5 8 0.5H40C44.4183 0.5 48 4.08172 48 8.5V40.5C48 44.9183 44.4183 48.5 40 48.5H8C3.58172 48.5 0 44.9183 0 40.5V8.5Z" fill="#EAE9FC"/>
<path d="M18.858 17.102C18.889 16.5843 19.1228 16.0997 19.5089 15.7534C19.8949 15.407 20.402 15.2269 20.92 15.252H27.08C27.598 15.2269 28.105 15.407 28.4911 15.7534C28.8771 16.0997 29.111 16.5843 29.142 17.102M18.858 17.102V23.179C18.8772 24.1786 19.169 25.154 19.7019 25.9999C20.2348 26.8458 20.9886 27.5301 21.882 27.979C22.5343 28.325 23.2615 28.506 24 28.506C24.7384 28.506 25.4656 28.325 26.118 27.979C27.0113 27.5301 27.7651 26.8458 28.298 25.9999C28.831 25.154 29.1228 24.1786 29.142 23.179V17.102M18.858 17.102L16.804 17.102C16.2875 17.0793 15.7827 17.2605 15.3987 17.6066C15.0146 17.9527 14.782 18.4359 14.751 18.952C14.754 20.112 15.053 21.252 15.621 22.263C16.215 23.3088 17.0446 24.2017 18.044 24.871L18.858 25.426L19.653 25.907M29.142 17.102L31.196 17.102C31.7125 17.0793 32.2172 17.2605 32.6013 17.6066C32.9854 17.9527 33.218 18.4359 33.249 18.952C33.2461 20.1118 32.9466 21.2516 32.379 22.263C31.7849 23.3088 30.9553 24.2017 29.956 24.871L29.142 25.426L28.347 25.907M21.947 30.975V28.006M26.053 30.975V28.006M27.19 30.975C27.4464 30.9748 27.7003 31.0251 27.9373 31.1231C28.1742 31.2211 28.3895 31.3648 28.5708 31.5462C28.7521 31.7275 28.8959 31.9428 28.9939 32.1797C29.0919 32.4167 29.1422 32.6706 29.142 32.927V33.26C29.142 33.39 29.0904 33.5146 28.9985 33.6065C28.9066 33.6984 28.7819 33.75 28.652 33.75H19.348C19.218 33.75 19.0934 33.6984 19.0015 33.6065C18.9096 33.5146 18.858 33.39 18.858 33.26V32.927C18.8577 32.6707 18.908 32.4168 19.0059 32.1799C19.1039 31.9431 19.2476 31.7278 19.4288 31.5465C19.61 31.3652 19.8251 31.2214 20.062 31.1234C20.2988 31.0253 20.5526 30.9749 20.809 30.975H27.19Z" stroke="#4F46E5" stroke-width="1.5" stroke-linecap="round"/>
</svg>
