<svg width="624" height="891" viewBox="0 0 624 891" fill="none" xmlns="http://www.w3.org/2000/svg">
<circle cx="674" cy="445" r="674" fill="#1FC16B" fill-opacity="0.1"/>
<circle cx="674" cy="445" r="662" stroke="#1FC16B" stroke-opacity="0.1" stroke-width="24"/>
<mask id="mask0_55_7779" style="mask-type:alpha" maskUnits="userSpaceOnUse" x="0" y="-229" width="1348" height="1348">
<circle cx="674" cy="445" r="674" fill="white"/>
</mask>
<g mask="url(#mask0_55_7779)">
<path d="M526.615 602.691V607.671C520.402 607.28 516.728 603.609 516.24 598.629C517.94 601.734 522.551 603.726 526.615 602.691Z" fill="#FFCB49"/>
<path d="M164.149 665.634C164.149 665.634 155.239 668.485 155.649 679.266C150.139 676.102 136.56 672.43 136.56 672.43C138.279 667.235 142.089 660.927 146.759 658.799C157.369 660.83 164.149 665.634 164.149 665.634Z" fill="#FFCB49"/>
<path d="M77.2786 100.081C77.2786 100.081 67.4701 99.8856 72.941 91.7809C65.2231 97.3467 70.44 103.186 74.2892 103.928C76.4385 101.389 77.2786 100.081 77.2786 100.081Z" fill="#7F65C0"/>
<path d="M332.222 726L337.615 717.387C330.933 715.2 326.81 711.06 326.81 711.06C324.583 715.219 322.043 718.559 322.043 718.559C324.602 722.836 332.242 726 332.242 726H332.222Z" fill="#7F65C0"/>
<path d="M484.079 35.6337C484.079 35.6337 491.387 34.6963 495.51 25.7909C490.117 19.1118 480.895 9.91344 480.895 9.91344C479.312 15.3036 475.834 18.4869 470.734 21.3577C476.791 27.9977 484.079 35.6532 484.079 35.6532V35.6337Z" fill="#7F65C0"/>
<path d="M311.257 554.316L306.549 550.449L299.769 556.484L304.106 560.527L311.257 554.316Z" fill="#7F65C0"/>
<path d="M23.2726 153.025C23.2726 153.025 22.9405 140.956 27.0632 137.441C17.5282 132.988 11.4907 130.117 8.63798 127.598C5.45314 132.343 5.78528 136.152 6.72315 140.292C14.3629 146.971 19.1108 150.799 23.2726 153.006V153.025Z" fill="#EC4130"/>
<path d="M372.277 169.078L368.467 173.59C370.714 177.125 374.251 179.956 376.947 181.069C378.354 179.097 379.624 175.718 379.624 175.718C376.947 174.586 373.547 171.617 372.277 169.078Z" fill="#EC4130"/>
<path d="M15.7311 518.655L14.1484 520.433L6.11792 517.894L7.91553 516.195L15.7311 518.655Z" fill="#EC4130"/>
<path d="M333.102 691.96L335.818 695.065L332.066 701.373L330.171 697.526L333.102 691.96Z" fill="#EC4130"/>
<path d="M158.775 231.826C158.775 231.826 153.031 235.771 150.51 239.834C145.743 235.967 144.16 229.385 141.933 224.737C144.473 221.632 147.638 219.445 147.638 219.445C149.553 225.167 154.633 228.975 158.775 231.846V231.826Z" fill="#EC4130"/>
<path d="M352.719 400.776C352.719 400.776 360.984 396.635 363.192 390.913C361.316 388.062 357.955 384.605 357.955 384.605C355.571 388.999 349.221 392.691 349.221 392.691C351.449 397.299 352.719 400.776 352.719 400.776Z" fill="#EC4130"/>
<path d="M288.065 459.598C288.065 459.598 284.118 458.349 284.313 453.525C281.871 454.931 275.833 456.571 275.833 456.571C276.595 458.895 278.276 461.669 280.347 462.645C285.056 461.727 288.065 459.598 288.065 459.598Z" fill="#FFCB49"/>
<path d="M225.442 687.429C225.442 687.429 225.305 692.8 227.142 694.342C222.902 696.334 220.225 697.604 218.955 698.736C217.548 696.608 217.666 694.928 218.115 693.092C221.495 690.124 223.625 688.425 225.442 687.448V687.429Z" fill="#EC4130"/>
<path d="M290.995 635.578C290.995 635.578 288.455 633.821 287.322 632.024C285.192 633.742 284.508 636.652 283.512 638.722C284.645 640.09 286.052 641.086 286.052 641.086C286.892 638.547 289.139 636.848 290.995 635.578Z" fill="#EC4130"/>
<path d="M371.886 577.302C371.886 577.302 375.56 579.158 376.537 581.697C375.696 582.966 374.192 584.509 374.192 584.509C373.137 582.536 370.323 580.915 370.323 580.915C371.3 578.865 371.867 577.302 371.867 577.302H371.886Z" fill="#EC4130"/>
<path d="M312.097 366.502C312.097 366.502 308.893 365.662 307.76 363.396C306.529 364.353 304.75 365.388 304.75 365.388C305.513 366.892 308.522 368.591 310.143 368.689C311.999 367.478 312.117 366.521 312.117 366.521L312.097 366.502Z" fill="#EC4130"/>
<path d="M214.754 272.018L210.046 268.151L203.285 274.186L207.603 278.228L214.754 272.018Z" fill="#7F65C0"/>
<path d="M273.332 198.822L270.499 196.459C267.392 198.529 262.977 201.732 262.977 201.732C264.579 202.942 266.279 203.899 266.279 203.899C266.279 203.899 270.792 201.732 273.352 198.822H273.332Z" fill="#EC4130"/>
<path d="M327.045 398.022V395.757C327.045 395.757 320.538 397.065 317.236 398.491V400.659C319.972 399.428 323.723 398.686 327.045 398.022Z" fill="#72B8D6"/>
<path d="M574.055 842.805C574.055 842.805 571.515 840.52 567.744 839.485C568.018 836.751 567.744 830.931 567.744 830.931C571.046 831.498 572.844 832.709 574.7 834.134C574.602 839.017 574.055 842.805 574.055 842.805Z" fill="#EC4130"/>
<path d="M98.1265 222.394L93.3004 224.464L90.5649 222.394L95.6646 219.953L98.1265 222.394Z" fill="#7F65C0"/>
<path d="M356.411 770.175V774.569C358.795 775.331 362.195 777.674 364.031 780.487C364.168 778.67 364.891 775.331 364.891 775.331C362.195 772.441 358.951 771.327 356.392 770.175H356.411Z" fill="#7F65C0"/>
<path d="M112.097 130.41C112.097 130.41 114.93 130.137 116.903 128.438C117.177 124.903 116.903 120.665 116.903 120.665C115.77 122.774 112.097 122.774 112.097 122.774V130.41Z" fill="#EC4130"/>
<path d="M10.5338 171.285C10.5338 171.285 12.6635 170.582 14.2071 169.176C10.9636 167.77 7.56382 163.532 7.01673 161.677C5.72716 162.243 3.46069 163.805 3.46069 163.805C5.02381 167.047 7.99369 169.606 10.5142 171.285H10.5338Z" fill="#72B8D6"/>
<path d="M505.455 749.65C505.455 749.65 502.915 751.915 499.163 752.931C499.437 755.665 499.163 761.504 499.163 761.504C502.446 760.938 504.243 759.727 506.119 758.301C506.021 753.419 505.455 749.65 505.455 749.65Z" fill="#EC4130"/>
<path d="M63.6407 8.58543L62.5856 7.94096C62.5856 7.94096 60.0847 9.95249 59.6157 15.1278C60.1824 15.2254 61.0225 15.4012 61.0225 15.4012C61.2179 13.0381 62.2339 9.60096 63.6407 8.5659V8.58543Z" fill="#00C89D"/>
<path d="M128.471 484.401C128.471 484.401 118.682 484.206 124.153 476.12C116.415 481.667 121.652 487.506 125.481 488.268C127.631 485.729 128.471 484.401 128.471 484.401Z" fill="#7F65C0"/>
<path d="M592.54 888.426C592.54 888.426 588.866 887.117 587.088 883.817C583.141 885.028 581.051 886.102 581.051 886.102C582.946 889.637 586.424 890.672 588.788 890.965C591.23 890.125 592.559 888.426 592.559 888.426H592.54Z" fill="#00C89D"/>
<path d="M168.858 851.808L167.158 854.23L163.387 848.312L164.344 845.637L168.858 851.808Z" fill="#00C89D"/>
<path d="M422.825 150.955L423.665 152.947C422.238 155.955 419.894 159.079 419.894 159.079C419.62 157.868 419.327 156.423 419.327 156.423C420.91 154.822 421.496 153.982 422.805 150.955H422.825Z" fill="#7F65C0"/>
<path d="M588.456 219.308V223.663C590.859 224.444 594.24 226.788 596.076 229.6C596.213 227.745 596.916 224.444 596.916 224.444C594.22 221.554 590.977 220.421 588.437 219.289L588.456 219.308Z" fill="#7F65C0"/>
<path d="M412.84 337.696L414.97 336.993L419.757 340.645L417.92 341.504L412.84 337.696Z" fill="#EC4130"/>
<path d="M546.701 373.435H541.347C540.077 375.837 537.811 377.536 535.681 378.512C537.655 378.649 541.191 378.512 541.191 378.512C544.728 376.54 545.294 375.7 546.701 373.435Z" fill="#EC4130"/>
<path d="M413.759 8.50731C413.759 8.50731 408.385 6.80825 406.842 3.00001C404.575 5.10919 401.762 8.50731 401.762 8.50731C404.439 11.2024 406.705 12.1788 409.675 12.9014C412.215 10.3626 413.759 8.50731 413.759 8.50731Z" fill="#EC4130"/>
<path d="M515.947 305.863C515.947 305.863 513.388 304.085 512.274 302.289C510.164 304.007 509.441 306.937 508.464 309.007C509.597 310.374 511.004 311.37 511.004 311.37C511.844 308.812 514.091 307.132 515.947 305.863Z" fill="#EC4130"/>
<path d="M407.741 263.113L408.737 262.41L417.354 267.624L416.67 268.464L407.741 263.113Z" fill="#EC4130"/>
<path d="M407.858 875.205C407.858 875.205 399.593 878.153 395.587 885.594C386.678 882.802 382.008 880.399 382.008 880.399C386.267 872.431 394.122 870.127 399.397 869.482C404.907 871.396 407.858 875.205 407.858 875.205Z" fill="#00C89D"/>
<path d="M461.473 612.748L465.908 612.944C467.256 617.416 469.523 624.232 471.105 625.54C469.562 626.985 466.69 626.79 466.69 626.79C464.032 623.548 462.059 616.381 461.453 612.748H461.473Z" fill="#00C89D"/>
<path d="M233.59 99.3778L227.103 97.874C224.563 98.9091 223.332 100.979 223.332 100.979C225.384 101.546 230.014 102.776 230.014 102.776C230.483 101.37 233.61 99.3973 233.61 99.3973L233.59 99.3778Z" fill="#7F65C0"/>
<path d="M409.557 258.836L410.398 260.808C408.991 263.835 406.627 266.94 406.627 266.94C406.353 265.71 406.06 264.304 406.06 264.304C407.662 262.703 408.229 261.863 409.538 258.855L409.557 258.836Z" fill="#7F65C0"/>
<path d="M164.852 38.9342L162.038 42.1761C163.289 45.1446 164.852 47.5467 167.959 49.2457C168.955 47.8396 170.225 46.1991 170.225 46.1991C167.255 43.4455 164.852 38.9342 164.852 38.9342Z" fill="#7F65C0"/>
<path d="M399.632 545.176V549.571C402.035 550.332 405.415 552.676 407.272 555.488C407.408 553.672 408.112 550.352 408.112 550.352C405.415 547.461 402.172 546.329 399.632 545.196V545.176Z" fill="#7F65C0"/>
<path d="M421.242 671.337L423.645 675.145C420.675 676.141 418.839 677.977 418.839 677.977C417.862 676.141 416.709 674.657 416.709 674.657C417.842 672.743 421.222 671.337 421.222 671.337H421.242Z" fill="#7F65C0"/>
<path d="M541.211 123.36L537.635 121.095C537.635 121.095 534.431 121.661 533.864 124.395C534.998 125.703 536.873 126.465 536.873 126.465C538.3 124.747 538.847 124.395 541.211 123.34V123.36Z" fill="#72B8D6"/>
<path d="M532.536 713.598C532.536 713.598 534.099 713.032 534.802 712.036V704.42C534.235 705.142 532.536 705.689 532.536 705.689V713.598Z" fill="#72B8D6"/>
<path d="M604.713 12.2374C604.713 12.2374 599.339 10.5384 597.796 6.73014C595.529 8.83932 592.716 12.2374 592.716 12.2374C595.393 14.913 597.659 15.909 600.629 16.5925C603.169 14.0537 604.732 12.2374 604.732 12.2374H604.713Z" fill="#EC4130"/>
<path d="M111.902 257.859C111.902 257.859 109.362 256.102 108.228 254.305C106.118 256.024 105.415 258.953 104.418 261.023C105.551 262.39 106.958 263.386 106.958 263.386C107.818 260.847 110.065 259.129 111.921 257.879L111.902 257.859Z" fill="#EC4130"/>
<path d="M503.305 432.257H506.119C505.279 435.948 505.435 439.053 506.119 440.87H503.305C501.762 436.632 503.305 432.257 503.305 432.257Z" fill="#00C89D"/>
<path d="M489.53 150.037L490.507 149.334L499.143 154.568L498.42 155.388L489.53 150.037Z" fill="#EC4130"/>
<path d="M380.835 429.328C380.835 429.328 382.105 428.898 383.239 429.328C383.375 430.578 383.239 432.863 383.239 432.863C382.399 432.57 380.835 432.863 380.835 432.863V429.328Z" fill="#7F65C0"/>
<path d="M344.161 329.962C346.896 331.368 346.798 333.262 346.33 334.844C347.463 334.18 348.498 332.774 348.498 332.774C348.791 330.509 346.33 328.829 346.33 328.829C345.392 329.103 344.161 329.962 344.161 329.962Z" fill="#00C89D"/>
<path d="M423.098 219.289C423.098 219.289 419.425 217.961 417.647 214.66C413.7 215.91 411.609 216.984 411.609 216.984C413.505 220.519 416.983 221.554 419.347 221.827C421.789 220.968 423.098 219.289 423.098 219.289Z" fill="#00C89D"/>
<path d="M463.055 511.976H458.112L463.055 518.323H466.299L463.055 511.976Z" fill="#00C89D"/>
<path d="M407.154 129.648C407.154 129.648 402.973 131.348 399.553 130.976C399.514 133.613 397.639 140.761 397.639 140.761C401.41 141.327 404.985 139.257 405.278 138.691C406.685 134.375 407.154 129.648 407.154 129.648Z" fill="#00C89D"/>
<path d="M17.0209 779.94L11.3741 782.674C6.86062 781.463 6.46987 779.842 4.86768 777.772C5.90324 776.464 8.3651 775.8 8.3651 775.8C10.9052 777.948 12.8786 780.116 17.0209 779.94Z" fill="#7F65C0"/>
<path d="M101.234 794.177H95.5869L91.8159 789.685H97.5604L101.234 794.177Z" fill="#EC4130"/>
<path d="M198.498 181.441C198.498 181.441 198.342 186.811 200.179 188.354C195.958 190.326 193.262 191.615 191.992 192.748C190.585 190.639 190.742 188.94 191.132 187.085C194.532 184.136 196.662 182.437 198.498 181.441Z" fill="#EC4130"/>
<path d="M219.541 788.455L215.575 791.931L213.328 791.091L217.47 787.732L219.541 788.455Z" fill="#72B8D6"/>
<path d="M194.551 304.749L196.524 305.453C196.524 305.453 196.388 311.663 196.524 313.792C195.391 313.225 194.551 312.522 194.551 312.522C194.414 309.71 194.551 304.749 194.551 304.749Z" fill="#72B8D6"/>
<path d="M355.982 276.686C355.982 276.686 359.655 278.521 360.651 281.06C359.811 282.33 358.307 283.892 358.307 283.892C357.252 281.9 354.418 280.279 354.418 280.279C355.415 278.248 355.982 276.686 355.982 276.686Z" fill="#EC4130"/>
<path d="M101.448 884.169L100.647 886.786H91.6006L93.1246 884.169H101.448Z" fill="#EC4130"/>
<path d="M325.149 895.789V891.394C327.572 890.633 330.953 888.289 332.789 885.477C332.926 887.293 333.629 890.633 333.629 890.633C330.933 893.523 327.689 894.636 325.149 895.789Z" fill="#7F65C0"/>
<path d="M194.903 550.899C194.903 550.899 198.166 550.488 200.002 546.504C197.599 543.555 193.496 539.454 193.496 539.454C192.793 541.876 191.229 543.282 188.963 544.532C191.659 547.52 194.903 550.879 194.903 550.879V550.899Z" fill="#7F65C0"/>
<path d="M152.406 681.98L153.402 682.683L162.019 677.469L161.316 676.61L152.406 681.98Z" fill="#EC4130"/>
<path d="M461.844 858.8C461.844 858.8 463.094 859.229 464.247 858.8C464.384 857.53 464.247 855.285 464.247 855.285C463.407 855.558 461.844 855.285 461.844 855.285V858.8Z" fill="#7F65C0"/>
<path d="M305.591 126.485H300.647L305.591 132.832H308.834L305.591 126.485Z" fill="#00C89D"/>
<path d="M325.872 245.107L327.865 244.403C327.865 244.403 329.409 246.376 329.409 249.344C328.139 249.755 327.65 249.344 327.65 249.344C327.435 247.645 325.872 245.107 325.872 245.107Z" fill="#00C89D"/>
<path d="M607.487 670.009L599.417 675.086C599.417 675.086 592.208 673.778 590.957 667.685C593.478 664.677 597.737 662.978 597.737 662.978C600.883 666.786 602.172 667.685 607.487 669.989V670.009Z" fill="#72B8D6"/>
<path d="M561.375 490.533C561.375 490.533 567.725 491.197 572.2 495.005C572.805 502.973 572.2 512.504 572.2 512.504C569.64 507.699 561.375 507.699 561.375 507.699V490.533Z" fill="#00C89D"/>
<path d="M27.6105 574.685V569.569C27.6105 569.569 12.9758 572.537 5.57056 575.701V580.583C11.7253 577.849 20.1857 576.111 27.6105 574.666V574.685Z" fill="#72B8D6"/>
<path d="M604.634 388.414L591.914 394.526C581.734 391.773 580.914 388.218 577.299 383.551C579.604 380.563 585.134 379.079 585.134 379.079C590.859 383.941 595.294 388.824 604.634 388.414Z" fill="#7F65C0"/>
<path d="M534.841 337.578L528.491 342.871C521.516 338.164 511.551 331.017 511.551 331.017C515.126 328.243 518.976 326.134 518.976 326.134C518.976 326.134 529.136 331.017 534.841 337.578Z" fill="#EC4130"/>
<path d="M550.16 159.724L542.129 164.801C542.129 164.801 534.919 163.532 533.669 157.38C536.209 154.431 540.429 152.713 540.429 152.713C543.614 156.541 544.904 157.38 550.179 159.724H550.16Z" fill="#72B8D6"/>
<path d="M67.3528 45.7695C67.3528 45.7695 45.3129 46.1796 57.6029 64.381C40.2133 51.9017 51.9757 38.7584 60.6119 37.0594C65.4185 42.801 67.3528 45.7695 67.3528 45.7695Z" fill="#7F65C0"/>
<path d="M470.519 272.155L466.944 268.132L448.929 273.873L452.954 277.662L470.519 272.155Z" fill="#EC4130"/>
<path d="M471.535 732.893L460.71 737.561L454.575 732.893L466.025 727.406L471.535 732.893Z" fill="#7F65C0"/>
<path d="M261.844 882.469L264.677 887.957C291.914 889.715 313.289 883.231 319.464 880.809C319.112 878.251 317.666 875.966 317.666 875.966C301.8 880.106 287.498 883.758 261.844 882.489V882.469Z" fill="#EC4130"/>
<path d="M91.7573 118.868L84.9187 126.153C113.035 148.69 147.287 141.62 158.678 136.62C155.806 132.48 155.044 127.852 155.044 127.852C132.848 134.101 104.497 128.418 91.7573 118.868Z" fill="#72B8D6"/>
<path d="M410.085 368.044C410.085 368.044 418.057 374.274 420.167 379.918C418.799 392.202 410.613 399.975 406.998 402.787C403.501 398.491 399.651 392.339 398.362 391.187C406.002 381.871 407.76 376.364 410.085 368.025V368.044Z" fill="#72B8D6"/>
<path d="M473.255 237.822C473.255 237.822 468.39 255.594 463.544 261.257C467.041 264.226 470.285 270.143 470.285 270.143C472.708 263.952 479.449 248.602 479.722 243.759C476.498 237.549 473.255 237.822 473.255 237.822Z" fill="#72B8D6"/>
<path d="M224.876 258.777C224.876 258.777 214.344 251.063 211.843 246.435C208.991 247.997 204.262 248.622 204.262 248.622C207.74 251.786 216.201 260.144 219.327 261.531C224.251 260.964 224.876 258.758 224.876 258.758V258.777Z" fill="#72B8D6"/>
<path d="M600.609 253.992C600.609 253.992 608.151 264.616 619.484 265.769C610.848 276.627 600.609 287.661 600.609 287.661C591.172 288.481 584.978 283.091 582.008 277.701C593.868 263.699 600.609 253.992 600.609 253.992Z" fill="#FFCB49"/>
<path d="M204.067 529.475C204.067 529.475 203.793 532.443 205.532 535.607C209.948 541.544 213.856 541.544 213.856 541.544C209.909 539.298 209.088 535.099 209.381 532.619C205.298 531.603 204.086 529.475 204.086 529.475H204.067Z" fill="url(#paint0_linear_55_7779)"/>
<path d="M205.532 535.607C205.532 535.607 212.39 543.575 225.091 541.29C222.453 545.508 219.971 546.407 219.971 546.407C215.067 544.337 208.444 541.739 205.532 535.607Z" fill="#FFCB49"/>
<path d="M471.672 566.678C471.672 566.678 446.33 577.185 429.097 595.504C434.216 597.398 439.609 602.769 439.609 602.769C451.469 585.798 475.717 579.333 482.204 576.365C477.886 570.975 471.692 566.659 471.692 566.659L471.672 566.678Z" fill="#72B8D6"/>
<path d="M332.105 783.924C332.105 783.924 330.484 794.978 337.498 803.863L343.028 800.368C337.772 795.778 334.274 790.662 332.125 783.924H332.105Z" fill="#FFCB49"/>
<path d="M583.083 9.48376C583.083 9.48376 578.218 20.7132 570.676 23.4083C574.994 31.22 581.715 42.5276 581.715 42.5276C589.277 39.2857 592.227 33.0949 593.321 29.5991C589.003 19.0922 583.063 9.48376 583.063 9.48376H583.083Z" fill="#EC4130"/>
<path d="M125.442 713.423C125.442 713.423 81.7729 741.174 65.6143 755.45C67.5095 759.219 68.5841 764.883 67.236 768.925C83.9417 757.344 129.233 730.667 129.233 730.667C130.034 719.36 127.885 716.918 125.442 713.423Z" fill="#72B8D6"/>
<path d="M296.819 83.5785C296.819 83.5785 299.242 98.1084 288.456 104.319C301.137 111.584 315.4 118.868 315.4 118.868C321.887 113.751 326.186 107.815 326.186 101.233C311.629 90.8629 296.799 83.598 296.799 83.598L296.819 83.5785Z" fill="#7F65C0"/>
<path fill-rule="evenodd" clip-rule="evenodd" d="M115.406 339.061C107.551 335.917 92.9943 346.424 85.4132 348.67C76.8161 351.873 62.0838 355.505 54.5613 348.318C59.5828 353.338 63.3147 358.747 70.8762 359.763C77.3632 360.583 84.28 358.903 90.5715 356.892C98.1721 354.939 117.008 341.542 124.745 345.623C121.599 343.456 118.59 341.132 115.406 339.081V339.061Z" fill="#FFCB49"/>
<path fill-rule="evenodd" clip-rule="evenodd" d="M156.261 378.277C144.636 380.991 123.534 405.774 112.064 394.799C116.695 399.134 120.095 404.778 127.95 403.938C132.463 403.47 137.231 401.4 141.568 399.212C147.645 396.322 159.485 385.014 165.113 384.721C162.162 382.573 159.329 380.23 156.261 378.296V378.277Z" fill="#FFCB49"/>
<path fill-rule="evenodd" clip-rule="evenodd" d="M47 286C54.3076 294.71 52.8422 309.572 51.9043 318.575C51.4158 324.961 50.3411 331.601 50.8882 338.28C51.2399 342.577 52.2755 345.662 54.5616 348.338C56.027 349.666 57.6877 350.642 59.5244 351.306C55.558 341.659 59.9933 327.539 60.3841 318.809C60.7944 311.916 60.9118 304.768 58.782 297.913C57.3361 293.324 55.1868 290.531 51.9824 288.07C50.3802 287.133 48.6999 286.508 47.0196 286.02L47 286Z" fill="#E5AC3C"/>
<path fill-rule="evenodd" clip-rule="evenodd" d="M152.315 391.889C151.338 393.978 150.322 396.029 149.462 397.865C147.879 401.399 147.508 410.969 154.171 411.574C155.636 407.844 157.844 403.86 159.251 401.009C160.97 397.337 163.159 393.49 164.37 389.662C165.015 387.612 165.621 385.835 165.132 384.682C161.986 384.78 157.18 388.334 152.334 391.869L152.315 391.889Z" fill="#E5AC3C"/>
<path fill-rule="evenodd" clip-rule="evenodd" d="M119.333 401.653C119.489 401.751 119.606 401.927 119.802 402.083C119.665 402.005 119.587 401.849 119.489 401.751C119.43 401.692 119.352 401.692 119.333 401.653Z" fill="#FFCB49"/>
<path fill-rule="evenodd" clip-rule="evenodd" d="M113.412 396.087C113.862 396.654 114.448 397.201 115.015 397.708C114.467 397.201 113.959 396.634 113.412 396.087Z" fill="#FFCB49"/>
<path fill-rule="evenodd" clip-rule="evenodd" d="M118.141 345.116C119.548 352.81 115.269 364.333 113.452 370.602C112.045 375.679 110.384 381.069 110.013 386.147C109.739 390.19 110.931 392.982 112.885 395.384C114.272 396.498 115.874 397.162 117.574 397.337C116.382 390.014 121.052 378.941 122.908 372.144C124.452 366.598 125.976 361.052 126.582 355.447C127.051 351.033 126.445 347.693 124.765 345.604C122.967 344.588 120.72 344.569 118.16 345.096L118.141 345.116Z" fill="#E5AC3C"/>
<path d="M429.741 519.573C430.698 520.101 431.5 520.765 432.164 521.604C432.574 522.542 432.809 523.518 432.73 524.534C432.574 526.604 431.793 528.694 431.187 530.666C430.523 532.853 429.546 535.607 429.917 537.931C428.901 537.814 428.002 537.54 427.357 537.033C427.338 537.033 427.318 537.033 427.318 536.994C426.849 536.388 426.478 535.685 426.322 534.865C425.951 533.029 426.38 530.979 426.927 529.045C427.709 526.135 429.565 522.62 429.741 519.593V519.573Z" fill="#6957A3"/>
<path d="M408.014 470.105C408.776 472.078 409.069 474.187 408.678 476.706C408.014 481.022 405.904 485.905 404.067 490.885C401.293 497.993 398.87 506.43 401.195 511.547C400.198 511.176 399.28 510.687 398.459 510.043C398.694 510.316 398.928 510.57 399.202 510.824C398.948 510.57 398.694 510.297 398.459 510.043C397.404 508.832 396.701 507.289 396.427 505.395C395.919 501.723 396.916 497.134 398.42 492.642C401.312 483.522 406.822 474.206 406.099 467.41C406.9 468.191 407.545 469.07 408.014 470.066V470.105Z" fill="#7F65C0"/>
<path fill-rule="evenodd" clip-rule="evenodd" d="M429.096 516.077C426.674 512.777 420.089 512.679 415.165 512.777C408.971 512.699 402.387 513.148 398.459 510.043C400.824 512.465 402.895 515.374 406.49 516.449C409.558 517.347 413.231 517.366 416.787 517.484C422.004 517.523 429.097 517.581 432.164 521.604C431.168 519.769 430.269 517.816 429.116 516.097L429.096 516.077Z" fill="#7F65C0"/>
<path fill-rule="evenodd" clip-rule="evenodd" d="M405.122 464.442C399.788 453.368 371.887 458.524 353.774 462.996C355.161 464.422 356.548 465.848 357.936 467.254C375.677 463.231 403.344 458.563 408.014 470.086C407.447 468.035 406.119 466.316 405.142 464.442H405.122Z" fill="#6957A3"/>
</g>
<defs>
<linearGradient id="paint0_linear_55_7779" x1="210.261" y1="532.775" x2="206.258" y2="541.135" gradientUnits="userSpaceOnUse">
<stop stop-color="#A84700"/>
<stop offset="0.26" stop-color="#D28E21"/>
<stop offset="1" stop-color="#B55D0A"/>
</linearGradient>
</defs>
</svg>
