<svg xmlns="http://www.w3.org/2000/svg" xmlns:xlink="http://www.w3.org/1999/xlink" width="50" zoomAndPan="magnify" viewBox="0 0 37.5 37.499999" height="50" preserveAspectRatio="xMidYMid meet" version="1.0"><defs><clipPath id="ee8da3b2d8"><path d="M 12.953125 12.953125 L 24.054688 12.953125 L 24.054688 24.054688 L 12.953125 24.054688 Z M 12.953125 12.953125 " clip-rule="nonzero"/></clipPath><clipPath id="3220823a7d"><path d="M 0 0 L 37.007812 0 L 37.007812 37.007812 L 0 37.007812 Z M 0 0 " clip-rule="nonzero"/></clipPath><clipPath id="8c5d560c1d"><path d="M 4 21 L 33 21 L 33 37.007812 L 4 37.007812 Z M 4 21 " clip-rule="nonzero"/></clipPath></defs><g clip-path="url(#ee8da3b2d8)"><path fill="#d8d8d8" d="M 12.953125 12.953125 L 24.054688 12.953125 L 24.054688 24.054688 L 12.953125 24.054688 Z M 12.953125 12.953125 " fill-opacity="1" fill-rule="nonzero"/></g><g clip-path="url(#3220823a7d)"><path fill="#d8d8d8" d="M 37.007812 18.503906 C 37.007812 23.238281 35.230469 27.554688 32.304688 30.828125 C 28.917969 34.621094 23.992188 37.007812 18.503906 37.007812 C 13.019531 37.007812 8.089844 34.621094 4.703125 30.828125 C 1.777344 27.554688 0 23.238281 0 18.503906 C 0 8.285156 8.285156 0 18.503906 0 C 28.722656 0 37.007812 8.285156 37.007812 18.503906 " fill-opacity="1" fill-rule="nonzero"/></g><path fill="#f2f2f2" d="M 18.503906 21.914062 C 21.859375 21.914062 24.914062 18.117188 24.914062 13.953125 C 24.914062 10.015625 24.152344 6.125 18.503906 6.125 C 12.855469 6.125 12.09375 10.015625 12.09375 13.953125 C 12.09375 18.117188 15.148438 21.914062 18.503906 21.914062 " fill-opacity="1" fill-rule="nonzero"/><g clip-path="url(#8c5d560c1d)"><path fill="#f2f2f2" d="M 32.304688 30.828125 C 28.917969 34.621094 23.992188 37.007812 18.503906 37.007812 C 13.019531 37.007812 8.089844 34.621094 4.703125 30.828125 C 4.644531 28.542969 6.164062 23.246094 13.929688 21.617188 C 15.253906 22.972656 16.890625 23.738281 18.503906 23.738281 C 20.117188 23.738281 21.75 22.972656 23.078125 21.617188 C 30.84375 23.246094 32.363281 28.542969 32.304688 30.828125 " fill-opacity="1" fill-rule="nonzero"/></g></svg>